<?xml version="1.0" encoding="UTF-8"?>
<svg xmlns="http://www.w3.org/2000/svg" version="1.1" viewBox="0 0 631.8 78.2">
    <g>

        <path
            d="M76.4,73.5h-40.5c-5.1,0-9.9-.9-14.2-2.7-4.4-1.8-8.1-4.3-11.4-7.5-3.2-3.2-5.7-7.1-7.5-11.5C1,47.3,0,42.5,0,37.2s.9-10.1,2.7-14.5c1.8-4.4,4.3-8.3,7.5-11.5,3.2-3.2,7-5.8,11.4-7.6,4.4-1.8,9.1-2.7,14.2-2.7s9.8.9,14.1,2.7c4.4,1.8,8.2,4.3,11.4,7.5,3.2,3.2,5.7,7.1,7.5,11.5,1.8,4.4,2.7,9.3,2.7,14.5s-1.4,12-4.1,17.1c-2.8,5.2-6.9,9.3-12.5,12.5v.2h21.4v6.5ZM7.7,37.2c0,4,.6,7.8,1.9,11.4,1.3,3.6,3.1,6.8,5.6,9.5,2.4,2.8,5.3,4.9,8.8,6.6,3.5,1.6,7.5,2.4,11.9,2.4s8.2-.8,11.8-2.4c3.5-1.6,6.5-3.8,8.9-6.6,2.4-2.8,4.3-5.9,5.7-9.5,1.3-3.6,2-7.4,2-11.4s-.7-7.8-2-11.4c-1.3-3.6-3.2-6.8-5.7-9.5-2.4-2.8-5.4-5-8.9-6.6s-7.4-2.4-11.8-2.4-8.4.8-11.9,2.4-6.4,3.8-8.8,6.6c-2.4,2.8-4.2,5.9-5.6,9.5-1.3,3.6-1.9,7.4-1.9,11.4Z" />
        <path
            d="M121.8,73.5c-.1-1.3-.2-2.7-.3-4.2,0-1.5-.1-2.8-.1-3.8h-.2c-1.3,2.7-3.5,5-6.5,6.7-3,1.7-6.2,2.5-9.5,2.5-5.9,0-10.4-1.8-13.4-5.3-3-3.5-4.4-8.2-4.4-14v-28.7h6.8v25.9c0,2.5.2,4.7.6,6.7s1.1,3.7,2,5.2c1,1.4,2.3,2.5,3.9,3.3,1.6.8,3.7,1.2,6.1,1.2s3.5-.4,5.2-1.1c1.7-.7,3.2-1.9,4.5-3.4,1.3-1.5,2.4-3.4,3.2-5.7.8-2.3,1.2-5,1.2-8.1v-24h6.8v36.5c0,1.3,0,2.9.1,4.9,0,2,.2,3.8.3,5.4h-6.5Z" />
        <path
            d="M175.4,43.2c0-4-1.1-7-3.2-9-2.1-2-5.2-3-9.3-3s-5.4.5-7.8,1.5c-2.4,1-4.4,2.3-6.1,4l-3.8-4.5c1.9-1.9,4.5-3.5,7.7-4.8,3.2-1.3,6.8-1.9,10.8-1.9s4.9.3,7.1,1c2.2.7,4.1,1.8,5.8,3.2,1.7,1.4,3,3.2,3.9,5.3.9,2.1,1.4,4.6,1.4,7.5v20.5c0,1.8,0,3.7.2,5.6.1,1.9.3,3.6.6,4.9h-6.1c-.2-1.1-.4-2.4-.5-3.7-.1-1.3-.2-2.6-.2-3.9h-.2c-2.1,3.1-4.6,5.4-7.2,6.8-2.7,1.4-6,2-9.8,2s-3.7-.3-5.6-.8c-1.9-.5-3.6-1.3-5.2-2.5-1.6-1.1-2.9-2.6-3.9-4.4-1-1.8-1.5-4-1.5-6.6s.9-6.5,2.8-8.6c1.8-2.1,4.3-3.7,7.4-4.7,3.1-1,6.6-1.7,10.5-2,4-.3,8.1-.5,12.4-.5v-1.5ZM173.4,50.1c-2.8,0-5.6.1-8.5.4-2.8.2-5.4.7-7.7,1.4-2.3.7-4.2,1.7-5.6,3.1-1.5,1.3-2.2,3.1-2.2,5.3s.3,3.1,1,4.2c.6,1.1,1.5,2,2.5,2.8,1.1.7,2.2,1.2,3.5,1.5,1.3.3,2.6.4,4,.4,2.4,0,4.5-.4,6.4-1.2,1.9-.8,3.4-2,4.7-3.4,1.3-1.4,2.2-3.1,2.9-5,.7-1.9,1-3.8,1-5.9v-3.5h-2Z" />
        <path
            d="M205.4,26.7c.1,1.3.2,2.7.3,4.2,0,1.5.1,2.8.1,3.8h.2c1.3-2.7,3.5-5,6.5-6.7s6.2-2.5,9.5-2.5c5.9,0,10.4,1.8,13.3,5.3,3,3.5,4.5,8.2,4.5,14v28.7h-6.8v-25.9c0-2.5-.2-4.7-.6-6.7s-1.1-3.7-2.1-5.2c-1-1.4-2.3-2.5-3.9-3.3-1.6-.8-3.7-1.2-6.1-1.2s-3.5.4-5.2,1.1c-1.7.7-3.2,1.9-4.5,3.4-1.3,1.5-2.4,3.4-3.2,5.7-.8,2.3-1.2,5-1.2,8.2v24h-6.8v-36.5c0-1.3,0-2.9-.1-4.9,0-2-.2-3.8-.3-5.4h6.5Z" />
        <path
            d="M278.5,32.4h-13.2v27.3c0,1.7.2,3.2.5,4.3.3,1.1.8,2,1.5,2.7.6.6,1.4,1.1,2.2,1.3.9.2,1.8.3,2.8.3s1.9-.1,3-.4c1-.3,2-.6,2.9-1.1l.3,5.9c-1.2.5-2.5.8-3.8,1-1.3.2-2.7.3-4.2.3s-2.6-.2-4-.5c-1.4-.3-2.7-1-3.9-1.9-1.2-.9-2.2-2.2-3-3.8-.8-1.6-1.1-3.7-1.1-6.3v-29.2h-9.7v-5.7h9.7v-13.2h6.8v13.2h13.2v5.7Z" />

        <path
            d="M300.3,73.5h-7.9L323,2.7h7l30.4,70.8h-8l-7.8-18.6h-36.6l-7.7,18.6ZM310.7,48.3h31.2l-15.6-37.6-15.6,37.6Z" />
        <path
            d="M404.1,37.4c-1.1-1.8-2.8-3.3-5-4.5-2.2-1.2-4.5-1.8-7-1.8s-5.2.5-7.4,1.5c-2.2,1-4.1,2.3-5.7,4-1.6,1.7-2.8,3.7-3.6,6-.8,2.3-1.2,4.8-1.2,7.4s.4,5.1,1.2,7.4c.8,2.3,2,4.2,3.5,6,1.5,1.7,3.4,3,5.6,4,2.2,1,4.7,1.5,7.4,1.5s5.5-.6,7.6-1.7c2.1-1.1,3.8-2.6,5.1-4.4l5.1,3.8c-2,2.5-4.4,4.4-7.3,5.9s-6.4,2.2-10.5,2.2-7.2-.6-10.3-1.9c-3.1-1.2-5.7-2.9-7.8-5.1-2.2-2.2-3.9-4.8-5.1-7.8-1.2-3-1.8-6.3-1.8-9.8s.6-6.8,1.8-9.8c1.2-3,2.9-5.6,5.1-7.8,2.2-2.2,4.8-3.9,7.8-5.2,3.1-1.2,6.5-1.8,10.3-1.8s6.3.7,9.5,2c3.2,1.4,5.9,3.4,7.9,6l-5.3,3.8Z" />

        <path
            d="M445.2,32.4h-13.2v27.3c0,1.7.2,3.2.5,4.3.3,1.1.8,2,1.5,2.7.6.6,1.4,1.1,2.2,1.3.9.2,1.8.3,2.8.3s1.9-.1,3-.4c1-.3,2-.6,3-1.1l.3,5.9c-1.2.5-2.5.8-3.8,1-1.3.2-2.7.3-4.2.3s-2.6-.2-4-.5c-1.4-.3-2.7-1-3.9-1.9-1.2-.9-2.2-2.2-3-3.8-.8-1.6-1.2-3.7-1.2-6.3v-29.2h-9.7v-5.7h9.7v-13.2h6.8v13.2h13.2v5.7Z" />
        <path
            d="M464.1,8.7c0,1.4-.5,2.5-1.5,3.5-1,.9-2.1,1.3-3.3,1.3s-2.3-.5-3.3-1.3c-1-.9-1.5-2.1-1.5-3.5s.5-2.5,1.5-3.5,2.1-1.3,3.3-1.3,2.3.4,3.3,1.3,1.5,2,1.5,3.5ZM462.7,73.5h-6.8V26.7h6.8v46.8Z" />

        <path fill="#009bbd"
            d="M503.2,78.4c-13.8,0-26-10-28.3-24.1-2.5-15.6,8.1-30.4,23.7-32.9h0c15.6-2.5,30.4,8.1,32.9,23.7,2.5,15.6-8.1,30.4-23.7,32.9-1.5.3-3.1.4-4.6.4ZM499.5,27.2c-12.4,2-20.8,13.7-18.8,26.1,2,12.4,13.7,20.8,26.1,18.8,12.4-2,20.8-13.7,18.8-26.1-2-12.4-13.7-20.8-26.1-18.8h0Z" />

        <path
            d="M548.6,26.7c.1,1.3.2,2.7.3,4.2,0,1.5.1,2.8.1,3.8h.2c1.3-2.7,3.5-5,6.5-6.7s6.2-2.5,9.5-2.5c5.9,0,10.4,1.8,13.3,5.3,3,3.5,4.5,8.2,4.5,14v28.7h-6.8v-25.9c0-2.5-.2-4.7-.6-6.7-.4-2-1.1-3.7-2-5.2-1-1.4-2.3-2.5-3.9-3.3-1.6-.8-3.7-1.2-6.1-1.2s-3.5.4-5.2,1.1c-1.7.7-3.2,1.9-4.5,3.4-1.3,1.5-2.4,3.4-3.2,5.7-.8,2.3-1.2,5-1.2,8.2v24h-6.8v-36.5c0-1.3,0-2.9-.1-4.9s-.2-3.8-.3-5.4h6.5Z" />
        <path
            d="M625.5,37.8c-1-1.9-2.5-3.5-4.5-4.8-2-1.2-4.3-1.8-7-1.8s-2.4.1-3.6.4c-1.2.3-2.3.7-3.2,1.3-.9.6-1.7,1.4-2.2,2.3-.6.9-.8,2-.8,3.3,0,2.2.9,3.9,2.7,5,1.8,1.2,4.6,2.2,8.5,3,5.5,1.1,9.6,2.8,12.2,5,2.6,2.2,3.9,5.1,3.9,8.7s-.5,4.9-1.5,6.8c-1,1.8-2.4,3.3-4,4.5-1.7,1.2-3.5,2-5.7,2.5-2.1.5-4.2.8-6.3.8-3.5,0-7-.7-10.3-2.2-3.3-1.5-6.1-3.8-8.2-6.9l5.4-4c1.2,2.1,3,3.8,5.3,5.2,2.3,1.4,4.9,2.1,7.7,2.1s2.9-.1,4.2-.4c1.3-.3,2.5-.7,3.5-1.4,1-.7,1.8-1.5,2.4-2.5.6-1,.9-2.3.9-3.8,0-2.5-1.2-4.3-3.6-5.5-2.4-1.2-5.8-2.4-10.2-3.4-1.4-.3-2.9-.8-4.4-1.2-1.6-.5-3-1.2-4.4-2.2-1.3-1-2.4-2.2-3.3-3.7-.9-1.5-1.3-3.3-1.3-5.5s.5-4.4,1.4-6.1,2.2-3.1,3.8-4.2,3.4-1.9,5.4-2.5c2-.5,4.1-.8,6.2-.8,3.3,0,6.4.7,9.5,2.2,3.1,1.5,5.4,3.5,6.9,6.2l-5.2,3.9Z" />

    </g>
</svg>