<svg width="20" height="20" viewBox="0 0 20 20" fill="none" xmlns="http://www.w3.org/2000/svg">
<path d="M8.025 12.525L16.05 4.5C16.3789 4.16667 16.7778 4 17.2467 4C17.7156 4 18.125 4.16491 18.475 4.49473C18.8083 4.82456 18.975 5.22873 18.975 5.70723C18.975 6.18574 18.8083 6.59167 18.475 6.925L9.225 16.15C8.8947 16.4833 8.49546 16.65 8.02728 16.65C7.55909 16.65 7.15833 16.4833 6.825 16.15L2.5 11.85C2.16667 11.5045 2 11.0972 2 10.6283C2 10.1594 2.16491 9.75833 2.49473 9.425C2.84123 9.075 3.24956 8.9 3.71973 8.9C4.18991 8.9 4.59167 9.075 4.925 9.425L8.025 12.525Z" fill="white"/>
</svg>
