<svg width="14" height="20" viewBox="0 0 14 20" fill="none" xmlns="http://www.w3.org/2000/svg">
<path fill-rule="evenodd" clip-rule="evenodd" d="M13.0901 5.80829C13.0874 4.42253 12.2775 3.20527 11.1136 2.60552C12.173 2.16729 12.7207 1.35174 12.7634 0.189102C12.7651 0.143307 12.7649 0.0975145 12.7632 0.0517196C12.7625 0.0354494 12.7552 0.0192866 12.7512 0.00334025C12.7394 0.00527974 12.7236 0.00355545 12.7205 0.00894283C12.3222 0.706404 11.6692 1.00004 10.9206 1.1301C10.2788 1.24172 9.63398 1.33708 8.98998 1.43641C8.94203 1.44385 8.8888 1.4292 8.83989 1.41713C8.07498 1.22716 7.30994 1.13332 6.54503 1.13494V1.1316C5.77991 1.1301 5.01498 1.22384 4.25007 1.41379C4.20115 1.42586 4.14793 1.44051 4.09998 1.43307C3.45595 1.33373 2.81106 1.23826 2.16932 1.12675C1.42077 0.996702 0.767718 0.703092 0.36946 0.005603C0.366336 0.000215569 0.350605 0.00204701 0.338752 0C0.334765 0.0158393 0.327438 0.0321107 0.326899 0.0483798C0.325175 0.0941747 0.32496 0.139967 0.326684 0.185762C0.369353 1.34829 0.917036 2.16384 1.97646 2.60218C0.812658 3.20191 0.00268145 4.41916 5.79866e-06 5.80495C-0.00107169 6.40587 0.148055 6.97361 0.411614 7.47315C0.034265 12.2016 0.747477 14.1482 0.924621 15.718C0.924621 15.718 1.69827 15.0163 1.81614 14.3992C2.11429 16.4101 4.32565 18.3416 4.55222 18.5479C4.35644 18.4799 4.14881 18.4258 3.98664 18.4277C3.18778 18.4554 2.85354 18.7451 2.84687 19.4359C3.07336 19.207 3.30427 19.0076 3.60672 18.9608C3.523 19.1989 3.40038 19.6879 3.42183 19.6971C3.64875 19.4587 3.90024 19.2659 4.20968 19.2259C4.11723 19.4754 3.97457 19.9881 3.99504 19.9967C4.31204 19.6645 4.66299 19.4851 5.04495 19.4388C5.06219 19.4403 5.07975 19.4415 5.10152 19.4407C5.30247 19.4325 5.5169 19.4506 5.7061 19.514C5.98625 19.6079 6.26542 19.6621 6.54504 19.6658V19.6691C6.82455 19.6655 7.10373 19.6113 7.38398 19.5174C7.57319 19.4539 7.78751 19.4358 7.98857 19.444C8.01033 19.4449 8.028 19.4436 8.04524 19.4422C8.42712 19.4884 8.77815 19.6678 9.09515 20C9.1154 19.9914 8.97285 19.4786 8.8804 19.2293C9.18997 19.2693 9.44146 19.4621 9.66836 19.7005C9.68981 19.6912 9.56719 19.2022 9.48336 18.9641C9.78582 19.0109 10.0166 19.2103 10.2432 19.4392C10.2365 18.7485 9.9022 18.4589 9.10345 18.4311C8.94139 18.4291 8.73365 18.4831 8.53786 18.5512C8.76457 18.3449 10.9759 16.4133 11.2741 14.4026C11.3919 15.0197 12.1656 15.7213 12.1656 15.7213C12.3427 14.1515 13.0559 12.2049 12.6786 7.47622C12.9421 6.97681 13.0913 6.40905 13.0901 5.80813L13.0901 5.80829ZM7.8251 4.16186C8.26956 3.71221 8.86024 3.46354 9.48789 3.4617H9.49565C10.7794 3.4617 11.8303 4.50729 11.8385 5.79287C11.8423 6.42493 11.6007 7.01865 11.1581 7.4646C10.7162 7.90984 10.1259 8.1555 9.49479 8.15635H9.49307H9.49296C8.20967 8.15635 7.15607 7.1142 7.14443 5.8324C7.13894 5.20465 7.38062 4.61137 7.8251 4.16186H7.8251ZM6.5238 7.90804C6.5308 7.91461 6.53791 7.9214 6.54502 7.92808V7.93132C6.55203 7.92464 6.55914 7.91785 6.56614 7.91127C6.83379 8.28548 7.17106 8.60507 7.55991 8.85173C7.57284 8.8639 7.58556 8.87597 7.59849 8.88825C7.27211 9.28736 6.92386 9.71329 6.56679 10.1504C6.55946 10.1415 6.55224 10.1328 6.54502 10.1238V10.1205C6.5377 10.1293 6.53048 10.1382 6.52326 10.1471C6.16607 9.70995 5.81782 9.28402 5.49145 8.88491C5.50449 8.87263 5.51709 8.86056 5.53013 8.84838C5.9189 8.60185 6.25614 8.28228 6.52379 7.90805L6.5238 7.90804ZM3.59438 3.45847H3.60203C4.22967 3.4603 4.82036 3.70899 5.26482 4.15863C5.70917 4.60817 5.95097 5.20145 5.94548 5.82917C5.93373 7.11098 4.88016 8.15313 3.59695 8.15313H3.59684H3.59523C2.96413 8.15226 2.37378 7.9066 1.93188 7.46138C1.48924 7.0154 1.24766 6.42171 1.25155 5.78965C1.25963 4.50409 2.31064 3.45847 3.59437 3.45847H3.59438Z" fill="white"/>
<path fill-rule="evenodd" clip-rule="evenodd" d="M3.59555 6.69756C4.08279 6.69788 4.48439 6.30189 4.4888 5.81713C4.48955 5.72145 4.47469 5.62889 4.44678 5.54172C4.37599 5.69106 4.2233 5.79537 4.04778 5.79526C3.80232 5.79493 3.6074 5.59797 3.60903 5.35154C3.6101 5.1785 3.71483 5.02743 3.86288 4.95717C3.77862 4.93002 3.68919 4.91526 3.59663 4.91504C3.11358 4.91343 2.71006 5.31446 2.70705 5.79903C2.70382 6.29813 3.0985 6.6968 3.59556 6.69755L3.59555 6.69756Z" fill="white"/>
<path fill-rule="evenodd" clip-rule="evenodd" d="M9.44613 6.69767C9.93349 6.69799 10.335 6.302 10.3394 5.81724C10.3401 5.72156 10.3253 5.6289 10.2974 5.54183C10.2267 5.69117 10.074 5.79548 9.89836 5.79537C9.65291 5.79504 9.45798 5.59808 9.45961 5.35165C9.46069 5.17861 9.56542 5.02754 9.71347 4.95717C9.62921 4.93013 9.53977 4.91537 9.44722 4.91504C8.96417 4.91343 8.56064 5.31446 8.55763 5.79914C8.55462 6.29824 8.94919 6.69691 9.44614 6.69766L9.44613 6.69767Z" fill="white"/>
</svg>
