<svg width="20" height="20" viewBox="0 0 20 20" fill="none" xmlns="http://www.w3.org/2000/svg">
    <g clip-path="url(#clip0_401_5130)">
        <path fill-rule="evenodd" clip-rule="evenodd" d="M16.3887 7.71894C16.386 6.35449 15.5886 5.15596 14.4426 4.56543C15.4857 4.13395 16.025 3.33094 16.067 2.18619C16.0687 2.1411 16.0685 2.09601 16.0668 2.05092C16.0662 2.0349 16.059 2.01899 16.055 2.00329C16.0434 2.0052 16.0279 2.0035 16.0248 2.00881C15.6327 2.69554 14.9897 2.98465 14.2526 3.11271C13.6206 3.22262 12.9858 3.31651 12.3517 3.41432C12.3045 3.42164 12.2521 3.40721 12.2039 3.39533C11.4507 3.20829 10.6975 3.11588 9.94434 3.11748V3.11419C9.19099 3.11271 8.43782 3.20501 7.68468 3.39204C7.63652 3.40392 7.58411 3.41835 7.5369 3.41103C6.90278 3.31321 6.26781 3.21921 5.63594 3.10942C4.89891 2.98137 4.25591 2.69228 3.86378 2.00552C3.8607 2.00021 3.84521 2.00202 3.83354 2C3.82961 2.0156 3.8224 2.03162 3.82187 2.04764C3.82017 2.09273 3.81996 2.13781 3.82166 2.1829C3.86367 3.32755 4.40293 4.13055 5.44605 4.56214C4.30016 5.15265 3.50264 6.35117 3.50001 7.71565C3.49894 8.30732 3.64578 8.86632 3.90528 9.35818C3.53374 14.0139 4.23598 15.9305 4.4104 17.4762C4.4104 17.4762 5.17214 16.7853 5.2882 16.1777C5.58176 18.1576 7.7591 20.0594 7.98219 20.2625C7.78941 20.1956 7.58498 20.1423 7.42531 20.1442C6.63874 20.1715 6.30964 20.4567 6.30307 21.1368C6.52607 20.9115 6.75343 20.7151 7.05124 20.6691C6.9688 20.9035 6.84807 21.385 6.86918 21.3941C7.09261 21.1593 7.34024 20.9695 7.64492 20.9302C7.55389 21.1758 7.41342 21.6805 7.43358 21.689C7.7457 21.3619 8.09125 21.1853 8.46733 21.1398C8.48431 21.1413 8.5016 21.1424 8.52303 21.1416C8.72089 21.1335 8.93203 21.1513 9.11832 21.2138C9.39415 21.3062 9.66903 21.3596 9.94435 21.3632V21.3665C10.2196 21.363 10.4944 21.3096 10.7704 21.2171C10.9567 21.1546 11.1677 21.1368 11.3657 21.1449C11.3871 21.1457 11.4045 21.1444 11.4215 21.1431C11.7975 21.1886 12.1431 21.3652 12.4552 21.6923C12.4752 21.6838 12.3348 21.1789 12.2438 20.9334C12.5486 20.9728 12.7962 21.1627 13.0196 21.3974C13.0407 21.3883 12.92 20.9068 12.8375 20.6724C13.1353 20.7184 13.3625 20.9148 13.5856 21.1401C13.579 20.4601 13.2499 20.1749 12.4634 20.1475C12.3038 20.1456 12.0993 20.1988 11.9065 20.2658C12.1297 20.0626 14.3071 18.1608 14.6006 16.181C14.7167 16.7886 15.4784 17.4795 15.4784 17.4795C15.6528 15.9338 16.355 14.0172 15.9835 9.3612C16.243 8.86947 16.3898 8.31061 16.3887 7.71894ZM11.2047 6.09783C11.6423 5.6551 12.2239 5.41026 12.8419 5.40844H12.8496C14.1135 5.40844 15.1483 6.43795 15.1563 7.70375C15.1602 8.32609 14.9222 8.91067 14.4865 9.34976C14.0514 9.78815 13.4701 10.03 12.8487 10.0309H12.847C11.5835 10.0309 10.546 9.00475 10.5345 7.74267C10.5291 7.12457 10.7671 6.54043 11.2047 6.09783ZM9.92343 9.78638C9.93033 9.79285 9.93733 9.79954 9.94433 9.80611V9.8093C9.95123 9.80272 9.95823 9.79603 9.96512 9.78956C10.2287 10.158 10.5607 10.4727 10.9436 10.7155C10.9563 10.7275 10.9689 10.7394 10.9816 10.7515C10.6602 11.1445 10.3173 11.5639 9.96576 11.9943C9.95854 11.9855 9.95144 11.9769 9.94433 11.9681V11.9648C9.93711 11.9735 9.93001 11.9822 9.9229 11.991C9.57121 11.5606 9.22832 11.1412 8.90696 10.7482C8.9198 10.7361 8.93222 10.7242 8.94505 10.7123C9.32784 10.4695 9.6599 10.1549 9.92343 9.78638ZM7.03908 5.40526H7.04661C7.6646 5.40706 8.2462 5.65192 8.68382 6.09465C9.12133 6.53727 9.35941 7.12142 9.35401 7.7395C9.34244 9.00158 8.30508 10.0277 7.04161 10.0277H7.03991C6.41853 10.0268 5.83726 9.78496 5.40216 9.34659C4.96633 8.90747 4.72847 8.32291 4.7323 7.70058C4.74025 6.4348 5.77509 5.40526 7.03908 5.40526Z" fill="white"/>
        <path fill-rule="evenodd" clip-rule="evenodd" d="M7.04086 8.59299C7.52061 8.5933 7.91603 8.20341 7.92037 7.72611C7.92112 7.63189 7.90647 7.54076 7.879 7.45493C7.8093 7.60198 7.65896 7.70467 7.48613 7.70457C7.24446 7.70425 7.05253 7.51031 7.05413 7.26768C7.05519 7.09729 7.15831 6.94855 7.30409 6.87938C7.22112 6.85264 7.13306 6.83811 7.04193 6.8379C6.56631 6.8363 6.169 7.23117 6.16604 7.70828C6.16285 8.19971 6.55146 8.59224 7.04087 8.59298L7.04086 8.59299Z" fill="white"/>
        <path fill-rule="evenodd" clip-rule="evenodd" d="M12.8006 8.59309C13.2805 8.59341 13.6758 8.20352 13.6801 7.72621C13.6809 7.632 13.6662 7.54076 13.6388 7.45504C13.5692 7.60209 13.4188 7.70478 13.2459 7.70468C13.0042 7.70436 12.8123 7.51042 12.8139 7.26779C12.815 7.0974 12.9181 6.94866 13.0639 6.87938C12.9809 6.85275 12.8928 6.83821 12.8017 6.8379C12.3261 6.8363 11.9288 7.23117 11.9258 7.70839C11.9228 8.19981 12.3113 8.59235 12.8006 8.59309L12.8006 8.59309Z" fill="white"/>
    </g>
    <defs>
        <clipPath id="clip0_401_5130">
            <rect width="16" height="16" fill="white" transform="translate(2 2)"/>
        </clipPath>
    </defs>
</svg>