<svg width="20" height="26" viewBox="0 0 20 26" fill="none" xmlns="http://www.w3.org/2000/svg">
<path d="M18.2383 0.831055H1.83203C1.18481 0.831055 0.660156 1.35571 0.660156 2.00293V2.78418C0.660156 3.4314 1.18481 3.95605 1.83203 3.95605C1.83203 8.3977 4.32305 12.1462 7.73252 13.3311C4.32305 14.5159 1.83203 18.2644 1.83203 22.7061C1.18481 22.7061 0.660156 23.2307 0.660156 23.8779V24.6592C0.660156 25.3064 1.18481 25.8311 1.83203 25.8311H18.2383C18.8855 25.8311 19.4102 25.3064 19.4102 24.6592V23.8779C19.4102 23.2307 18.8855 22.7061 18.2383 22.7061C18.2383 18.2644 15.7473 14.5159 12.3378 13.3311C15.7473 12.1462 18.2383 8.3977 18.2383 3.95605C18.8855 3.95605 19.4102 3.4314 19.4102 2.78418V2.00293C19.4102 1.35571 18.8855 0.831055 18.2383 0.831055ZM14.5724 19.5811H5.49805C6.33101 17.296 8.0418 15.6748 10.0352 15.6748C12.0284 15.6748 13.7394 17.2957 14.5724 19.5811ZM14.5733 7.08105H5.49795C5.15176 6.13125 4.95703 5.0668 4.95703 3.95605H15.1133C15.1133 5.06958 14.9186 6.13315 14.5733 7.08105Z" fill="black"/>
</svg>
